<?xml version="1.0" encoding="UTF-8"?>
<!DOCTYPE svg PUBLIC "-//W3C//DTD SVG 1.1//EN" "http://www.w3.org/Graphics/SVG/1.1/DTD/svg11.dtd">
<!-- Creator: CorelDRAW X8 -->
<svg xmlns="http://www.w3.org/2000/svg" xml:space="preserve" width="0.34636cm" height="0.34636cm" version="1.1" style="shape-rendering:geometricPrecision; text-rendering:geometricPrecision; image-rendering:optimizeQuality; fill-rule:evenodd; clip-rule:evenodd"
viewBox="0 0 346 346"
 xmlns:xlink="http://www.w3.org/1999/xlink">
 <defs>
  <style type="text/css">
   <![CDATA[
    .fil0 {fill:#332C2B;fill-rule:nonzero}
   ]]>
  </style>
 </defs>
 <g id="Layer_x0020_1">
  <metadata id="CorelCorpID_0Corel-Layer"/>
  <path class="fil0" d="M24 191c-9,0 -16,-7 -16,-17 0,-9 7,-17 16,-17l297 0c9,0 17,8 17,17 0,10 -8,17 -17,17l-297 0z"/>
  <path class="fil0" d="M156 26c0,-9 7,-17 17,-17 9,0 16,8 16,17l0 296c0,10 -7,17 -16,17 -10,0 -17,-7 -17,-17l0 -296z"/>
 </g>
</svg>
