<?xml version="1.0" encoding="UTF-8"?>
<!DOCTYPE svg PUBLIC "-//W3C//DTD SVG 1.1//EN" "http://www.w3.org/Graphics/SVG/1.1/DTD/svg11.dtd">
<!-- Creator: CorelDRAW X8 -->
<svg xmlns="http://www.w3.org/2000/svg" xml:space="preserve" width="1.905cm" height="1.905cm" version="1.1" style="shape-rendering:geometricPrecision; text-rendering:geometricPrecision; image-rendering:optimizeQuality; fill-rule:evenodd; clip-rule:evenodd"
viewBox="0 0 1905 1905"
 xmlns:xlink="http://www.w3.org/1999/xlink">
 <defs>
  <style type="text/css">
   <![CDATA[
    .fil0 {fill:#00A2E9;fill-rule:nonzero}
   ]]>
  </style>
 </defs>
 <g id="Layer_x0020_1">
  <metadata id="CorelCorpID_0Corel-Layer"/>
  <path class="fil0" d="M616 832c-9,-7 -19,-13 -29,-18l-53 -26 35 -48c9,-12 16,-26 21,-41 4,-14 7,-30 7,-46 0,-41 -17,-78 -44,-105 -27,-27 -64,-44 -106,-44 -41,0 -78,17 -105,44 -27,27 -44,64 -44,105 0,16 3,32 7,46 5,15 12,29 21,41l34 48 -52 26c-35,18 -64,44 -84,77 -20,32 -31,69 -31,109l0 173c0,9 4,18 11,24 6,7 15,11 25,11l369 0 0 -15 0 -2 0 -1 0 -1 0 -1 0 -2 0 -1 0 -1 1 -2 0 0 0 -2 0 -1 0 -2 0 0 0 -2 0 -1 0 -1 0 -5 1 -2 0 0 0 -2c4,-48 20,-93 44,-132 2,-2 3,-4 5,-7l0 -1 1 0 0 -1 1 -1 0 -1 1 0 0 -1 1 0 0 -2 1 0 1 -1 0 0 1 -2 1 -1 0 0c12,-18 26,-33 42,-48 12,-6 22,-13 28,-17 8,-5 8,-5 3,-16 -4,-12 -12,-35 -17,-56 -5,-22 -7,-41 -6,-58l0 -5 0 0 0 0c4,-56 20,-95 69,-144l0 0c46,-45 108,-73 177,-73 68,0 131,28 176,73l0 0c30,31 53,70 65,113 11,-11 23,-21 35,-31 -3,-7 -6,-15 -8,-22 -8,-25 -13,-51 -13,-77 0,-69 28,-131 73,-176 46,-45 108,-73 177,-73 68,0 131,28 176,73 45,45 73,107 73,176 0,26 -4,52 -12,77 -3,7 -6,15 -9,22 32,24 59,53 80,87 29,47 46,102 46,161l0 173c0,37 -15,70 -40,95l0 0c-25,25 -58,40 -96,40l-140 0 0 -100 140 0c10,0 19,-4 25,-10l1 -1c6,-6 10,-15 10,-24l0 -173c0,-40 -11,-77 -31,-109 -20,-33 -49,-59 -84,-77l-52 -26 34 -48c9,-12 16,-26 21,-41 4,-14 7,-30 7,-46 0,-41 -17,-78 -44,-105 -27,-27 -64,-44 -105,-44 -42,0 -79,17 -106,44 -27,27 -44,64 -44,105 0,16 3,32 7,46 5,15 12,29 21,41l35 48 -53 26c-33,17 -61,42 -81,73 -15,24 -26,50 -31,79 15,14 29,29 41,46l0 0 1 2 0 0 1 1 0 0 1 2 0 0 1 1 1 0 0 1 1 1 0 1 1 0 1 3 1 0 0 1 1 1 0 1 4 5c24,39 40,84 44,132l0 2 0 0 1 2 0 5 0 1 0 1 0 2 0 0 0 2 0 1 0 2 0 0 1 2 0 1 0 1 0 2 0 1 0 1 0 1 0 2 0 15 0 100 0 18 0 40c0,37 -16,71 -40,95 -25,25 -58,40 -96,40l-437 0c-38,0 -71,-15 -96,-40 -24,-24 -40,-58 -40,-95l0 -58 -369 0c-38,0 -72,-15 -96,-40 -25,-24 -40,-58 -40,-95l0 -173c0,-59 17,-114 46,-161 21,-34 48,-63 80,-87 -3,-7 -6,-15 -9,-22 -8,-25 -12,-51 -12,-77 0,-69 28,-131 73,-176 45,-45 108,-73 176,-73 69,0 131,28 177,73 45,45 73,107 73,176 0,26 -5,52 -13,77 -11,35 -45,72 -68,102zm170 192l-5 3c-18,14 -34,31 -47,49l0 1 0 0 -1 1 0 1 -1 1 0 0 -1 1 0 0 -1 2 0 0 -1 1 0 0 0 1 -1 1 -1 1 0 1c-15,24 -24,53 -27,83l-1 1 0 1 0 0 0 2 0 0 0 1 0 0 0 2 0 0 0 1 0 1 0 1 0 1 0 0 0 2 0 0 -1 1 0 1 0 1 0 1 0 1 0 0 0 1 0 1 0 1 0 1 0 115 0 58c0,9 4,18 11,25 6,6 15,10 25,10l437 0c10,0 19,-4 25,-10 7,-7 11,-16 11,-25l0 -58 0 -115 0 -1 0 -1 0 -1 0 -1 0 0 0 -1 0 -1 0 -1 0 -1 -1 -1 0 0 0 -2 0 0 0 -1 0 -1 0 -1 0 -1 0 0 0 -2 0 0 0 -1 0 0 0 -2 0 0 0 -1 0 -1c-4,-29 -12,-55 -26,-79l0 0 -1 -2 0 0 -1 -2 0 -1 -1 -1 0 0 -1 -1 0 -1 0 0 -1 -1 0 0 -1 -2 0 0 -1 -1 0 0 -1 -1 0 -1 -1 -1c-13,-19 -29,-36 -47,-50l-5 -3c-8,-6 -18,-12 -27,-17l-52 -26 34 -47c9,-13 16,-27 21,-42 4,-14 7,-29 7,-46 0,-41 -17,-78 -44,-105l0 0c-27,-27 -64,-44 -105,-44 -42,0 -79,17 -106,44 -27,27 -44,64 -44,105 0,17 3,32 7,46 5,15 12,29 21,42l34 47 -52 26c-9,5 -19,11 -27,17z"/>
 </g>
</svg>
