<?xml version="1.0" encoding="UTF-8"?>
<!DOCTYPE svg PUBLIC "-//W3C//DTD SVG 1.1//EN" "http://www.w3.org/Graphics/SVG/1.1/DTD/svg11.dtd">
<!-- Creator: CorelDRAW X8 -->
<svg xmlns="http://www.w3.org/2000/svg" xml:space="preserve" width="0.34636cm" height="0.34636cm" version="1.1" style="shape-rendering:geometricPrecision; text-rendering:geometricPrecision; image-rendering:optimizeQuality; fill-rule:evenodd; clip-rule:evenodd"
viewBox="0 0 346 346"
 xmlns:xlink="http://www.w3.org/1999/xlink">
 <defs>
  <style type="text/css">
   <![CDATA[
    .fil0 {fill:#332C2B;fill-rule:nonzero}
   ]]>
  </style>
 </defs>
 <g id="Layer_x0020_1">
  <metadata id="CorelCorpID_0Corel-Layer"/>
  <path class="fil0" d="M75 69l209 0 0 211c0,16 -6,30 -16,40l0 0c-11,10 -25,17 -41,17l-112 0c-15,0 -29,-7 -40,-17l0 0c-10,-10 -16,-24 -16,-40l0 -211 16 0zm175 34l-158 0 0 177c0,6 3,12 7,16l0 0c4,4 10,7 16,7l112 0c7,0 13,-3 17,-7l0 0c4,-4 6,-10 6,-16l0 -177z"/>
  <path class="fil0" d="M41 103c-10,0 -17,-7 -17,-17 0,-9 7,-17 17,-17l261 0c9,0 17,8 17,17 0,10 -8,17 -17,17l-261 0z"/>
  <path class="fil0" d="M131 69l81 0 0 -24 -81 0 0 24zm98 34l-132 0 0 -63c0,-8 3,-15 8,-20l0 0c6,-6 13,-9 21,-9l91 0c8,0 15,3 20,9 6,5 9,12 9,20l0 63 -17 0z"/>
 </g>
</svg>
