<?xml version="1.0" encoding="UTF-8"?>
<!DOCTYPE svg PUBLIC "-//W3C//DTD SVG 1.1//EN" "http://www.w3.org/Graphics/SVG/1.1/DTD/svg11.dtd">
<!-- Creator: CorelDRAW X8 -->
<svg xmlns="http://www.w3.org/2000/svg" xml:space="preserve" width="1.905cm" height="1.905cm" version="1.1" style="shape-rendering:geometricPrecision; text-rendering:geometricPrecision; image-rendering:optimizeQuality; fill-rule:evenodd; clip-rule:evenodd"
viewBox="0 0 1905 1905"
 xmlns:xlink="http://www.w3.org/1999/xlink">
 <defs>
  <style type="text/css">
   <![CDATA[
    .fil0 {fill:#00A2E9;fill-rule:nonzero}
   ]]>
  </style>
 </defs>
 <g id="Layer_x0020_1">
  <metadata id="CorelCorpID_0Corel-Layer"/>
  <path class="fil0" d="M737 1296c90,-1 176,-23 256,-64 84,-43 162,-107 230,-187l29 -34 34 28c23,19 50,39 78,58 34,23 69,45 100,64 43,27 77,46 105,58 24,10 41,14 55,13l0 0c10,-1 17,-4 23,-10 8,-8 13,-20 16,-35 0,-5 1,-12 2,-21l90 0c-1,15 -3,28 -4,36 -6,33 -19,61 -39,82 -22,22 -49,35 -82,38 -28,2 -59,-5 -96,-21 -32,-14 -70,-35 -117,-63 -31,-19 -68,-43 -104,-68 -17,-11 -34,-23 -50,-35 -69,74 -146,134 -230,177 -93,47 -193,73 -299,73 -279,0 -460,-110 -540,-252 -33,-57 -49,-119 -49,-180 0,-62 16,-124 49,-181 36,-64 92,-121 169,-165 25,5 49,12 72,21 15,6 29,14 44,23 -100,38 -169,97 -207,165 -8,13 -14,27 -20,41 37,12 75,26 115,52 30,18 60,42 88,72 25,26 49,56 68,91 36,63 59,138 81,214 11,2 22,3 34,4 27,-48 52,-100 67,-181 10,-54 16,-120 15,-185 -1,-54 0,-117 -13,-159 -14,-41 -35,-72 -60,-97 -17,-17 -36,-32 -56,-47l0 0c-36,-25 -70,-51 -103,-67 71,-22 153,-34 246,-34 106,0 206,26 299,73 84,43 161,103 230,177 16,-12 33,-24 50,-35 36,-25 73,-49 104,-68 47,-28 85,-49 117,-63 37,-16 68,-23 96,-21 33,3 60,16 82,38 20,21 33,49 39,82 5,29 8,99 9,178l-90 0c-1,-74 -3,-139 -7,-163 -3,-15 -8,-27 -16,-35 -6,-6 -13,-9 -23,-10l0 0c-14,-1 -31,3 -55,13 -28,12 -62,31 -105,58 -31,19 -66,41 -100,64 -28,19 -55,39 -78,58l-34 28 -29 -34c-68,-80 -146,-144 -230,-187 -81,-41 -168,-64 -259,-64 -6,0 -13,1 -19,1 32,34 52,85 69,139 16,50 24,111 25,174 2,70 -5,143 -16,202 -13,73 -34,126 -56,171zm-502 -351c0,3 0,5 0,8 0,46 12,93 37,136 41,74 119,137 232,173 -16,-53 -34,-104 -59,-146 -16,-28 -34,-52 -54,-73 -23,-24 -48,-44 -71,-59 -29,-17 -57,-29 -85,-39z"/>
 </g>
</svg>
