<?xml version="1.0" encoding="UTF-8"?>
<!DOCTYPE svg PUBLIC "-//W3C//DTD SVG 1.1//EN" "http://www.w3.org/Graphics/SVG/1.1/DTD/svg11.dtd">
<!-- Creator: CorelDRAW X8 -->
<svg xmlns="http://www.w3.org/2000/svg" xml:space="preserve" width="1.905cm" height="1.905cm" version="1.1" style="shape-rendering:geometricPrecision; text-rendering:geometricPrecision; image-rendering:optimizeQuality; fill-rule:evenodd; clip-rule:evenodd"
viewBox="0 0 1905 1905"
 xmlns:xlink="http://www.w3.org/1999/xlink">
 <defs>
  <style type="text/css">
   <![CDATA[
    .fil0 {fill:#00A2E9;fill-rule:nonzero}
   ]]>
  </style>
 </defs>
 <g id="Layer_x0020_1">
  <metadata id="CorelCorpID_0Corel-Layer"/>
  <path class="fil0" d="M953 384c156,0 298,64 401,167 103,103 167,245 167,402 0,156 -64,298 -167,401 -103,103 -245,167 -401,167 -157,0 -299,-64 -402,-167 -103,-103 -167,-245 -167,-401 0,-157 64,-299 167,-402 103,-103 245,-167 402,-167zm331 237c-85,-84 -202,-137 -331,-137 -130,0 -247,53 -332,137 -84,85 -137,202 -137,332 0,129 53,246 137,331 85,84 202,137 332,137 129,0 246,-53 331,-137 84,-85 137,-202 137,-331 0,-130 -53,-247 -137,-332z"/>
  <path class="fil0" d="M953 592c99,0 189,40 255,105 65,66 105,156 105,256 0,99 -40,189 -105,255 -66,65 -156,105 -255,105 -100,0 -190,-40 -256,-105 -65,-66 -105,-156 -105,-255 0,-100 40,-190 105,-256 66,-65 156,-105 256,-105zm184 176c-47,-47 -112,-76 -184,-76 -73,0 -138,29 -185,76 -47,47 -76,112 -76,185 0,72 29,137 76,184 47,47 112,76 185,76 72,0 137,-29 184,-76 47,-47 76,-112 76,-184 0,-73 -29,-138 -76,-185z"/>
 </g>
</svg>
