<?xml version="1.0" encoding="UTF-8"?>
<!DOCTYPE svg PUBLIC "-//W3C//DTD SVG 1.1//EN" "http://www.w3.org/Graphics/SVG/1.1/DTD/svg11.dtd">
<!-- Creator: CorelDRAW X8 -->
<svg xmlns="http://www.w3.org/2000/svg" xml:space="preserve" width="1.905cm" height="1.905cm" version="1.1" style="shape-rendering:geometricPrecision; text-rendering:geometricPrecision; image-rendering:optimizeQuality; fill-rule:evenodd; clip-rule:evenodd"
viewBox="0 0 1905 1905"
 xmlns:xlink="http://www.w3.org/1999/xlink">
 <defs>
  <style type="text/css">
   <![CDATA[
    .fil0 {fill:#00A2E9;fill-rule:nonzero}
   ]]>
  </style>
 </defs>
 <g id="Layer_x0020_1">
  <metadata id="CorelCorpID_0Corel-Layer"/>
  <g id="_1032249520">
   <path class="fil0" d="M229 652l282 0 0 126 883 0 0 -126 332 0 0 100 -100 0 -54 0 -78 0 0 126 -1083 0 0 -126 -132 0 0 598 132 0 0 -178 1083 0 0 178 132 0 0 -80 100 0 0 180 -232 0 0 236 -1083 0 0 -236 -232 0 0 -798 50 0zm1165 798l0 -178 -883 0 0 178 0 136 883 0 0 -136z"/>
   <path class="fil0" d="M461 219l800 0 233 233 0 426 -1083 0 0 -659 50 0zm759 100l-709 0 0 459 883 0 0 -284 -174 -175z"/>
   <polygon class="fil0" points="1272,273 1272,448 1482,448 1482,548 1172,548 1172,273 "/>
  </g>
 </g>
</svg>
