<?xml version="1.0" encoding="UTF-8"?>
<!DOCTYPE svg PUBLIC "-//W3C//DTD SVG 1.1//EN" "http://www.w3.org/Graphics/SVG/1.1/DTD/svg11.dtd">
<!-- Creator: CorelDRAW X8 -->
<svg xmlns="http://www.w3.org/2000/svg" xml:space="preserve" width="1.905cm" height="1.905cm" version="1.1" style="shape-rendering:geometricPrecision; text-rendering:geometricPrecision; image-rendering:optimizeQuality; fill-rule:evenodd; clip-rule:evenodd"
viewBox="0 0 1905 1905"
 xmlns:xlink="http://www.w3.org/1999/xlink">
 <defs>
  <style type="text/css">
   <![CDATA[
    .fil0 {fill:#00A2E9;fill-rule:nonzero}
   ]]>
  </style>
 </defs>
 <g id="Layer_x0020_1">
  <metadata id="CorelCorpID_0Corel-Layer"/>
  <g id="_1024121904">
   <path class="fil0" d="M1192 1297l124 -123 141 0 -195 194 -70 -71zm204 -204l50 -50 -254 -255 70 -70 326 325 -50 50 -142 0z"/>
   <polygon class="fil0" points="1517,1093 1171,1093 817,1093 817,993 1517,993 "/>
   <polygon class="fil0" points="643,1187 317,862 643,537 713,608 459,862 713,1117 "/>
   <path class="fil0" d="M388 812l86 0 -15 50 15 50 -86 0 0 -100zm228 0l472 0 0 100 -472 0 -50 -50 50 -50z"/>
  </g>
 </g>
</svg>
