<?xml version="1.0" encoding="UTF-8"?>
<!DOCTYPE svg PUBLIC "-//W3C//DTD SVG 1.1//EN" "http://www.w3.org/Graphics/SVG/1.1/DTD/svg11.dtd">
<!-- Creator: CorelDRAW X8 -->
<svg xmlns="http://www.w3.org/2000/svg" xml:space="preserve" width="1.15454cm" height="1.15454cm" version="1.1" style="shape-rendering:geometricPrecision; text-rendering:geometricPrecision; image-rendering:optimizeQuality; fill-rule:evenodd; clip-rule:evenodd"
viewBox="0 0 1155 1155"
 xmlns:xlink="http://www.w3.org/1999/xlink">
 <defs>
  <style type="text/css">
   <![CDATA[
    .fil0 {fill:#00A2E9;fill-rule:nonzero}
   ]]>
  </style>
 </defs>
 <g id="Layer_x0020_1">
  <metadata id="CorelCorpID_0Corel-Layer"/>
  <path class="fil0" d="M577 159c135,0 257,55 346,143 88,89 143,211 143,346 0,46 -6,91 -19,134 -12,44 -31,86 -55,124l-14 24 -313 0c-18,39 -58,66 -104,66 -46,0 -86,-27 -105,-66l-19 0c-42,-25 -79,-59 -106,-100l125 0c18,-38 56,-64 99,-66l115 -428c23,7 45,16 65,28l-112 418c18,12 33,28 42,48l256 0c13,-24 23,-49 30,-75 10,-34 15,-70 15,-107 0,-108 -43,-205 -114,-275 -70,-70 -167,-114 -275,-114 -107,0 -204,44 -275,114 -70,70 -114,167 -114,275 0,37 6,73 15,107 8,26 18,51 30,75l2 0c19,37 45,71 75,100l-133 0 -15 -24c-24,-38 -42,-80 -55,-124 -12,-43 -19,-88 -19,-134 0,-135 55,-257 144,-346 88,-88 210,-143 345,-143z"/>
 </g>
</svg>
