<?xml version="1.0" encoding="UTF-8"?>
<!DOCTYPE svg PUBLIC "-//W3C//DTD SVG 1.1//EN" "http://www.w3.org/Graphics/SVG/1.1/DTD/svg11.dtd">
<!-- Creator: CorelDRAW X8 -->
<svg xmlns="http://www.w3.org/2000/svg" xml:space="preserve" width="0.34636cm" height="0.34636cm" version="1.1" style="shape-rendering:geometricPrecision; text-rendering:geometricPrecision; image-rendering:optimizeQuality; fill-rule:evenodd; clip-rule:evenodd"
viewBox="0 0 346 346"
 xmlns:xlink="http://www.w3.org/1999/xlink">
 <defs>
  <style type="text/css">
   <![CDATA[
    .fil0 {fill:#332C2B;fill-rule:nonzero}
   ]]>
  </style>
 </defs>
 <g id="Layer_x0020_1">
  <metadata id="CorelCorpID_0Corel-Layer"/>
  <path class="fil0" d="M70 186l147 -147c6,-6 13,-11 21,-14 8,-4 16,-5 25,-5l0 0c9,0 17,1 25,5 8,3 15,8 21,14 6,6 11,13 14,21 3,8 5,16 5,25l0 0c0,8 -2,17 -5,25 -3,7 -8,15 -14,21l-203 203 -92 0 0 -92 56 -56zm96 148c-10,0 -17,-7 -17,-17 0,-9 7,-17 17,-17l151 0c9,0 16,8 16,17 0,10 -7,17 -16,17l-151 0zm-27 -79l147 -147c3,-3 5,-7 7,-11 2,-4 2,-8 2,-12l0 0c0,-4 0,-9 -2,-13 -2,-3 -4,-7 -7,-10 -3,-3 -7,-6 -11,-7 -3,-2 -8,-3 -12,-3l0 0c-4,0 -8,1 -12,3 -4,1 -8,4 -11,7l-194 194 0 45 46 0 47 -46z"/>
 </g>
</svg>
