<?xml version="1.0" encoding="UTF-8"?>
<!DOCTYPE svg PUBLIC "-//W3C//DTD SVG 1.1//EN" "http://www.w3.org/Graphics/SVG/1.1/DTD/svg11.dtd">
<!-- Creator: CorelDRAW X8 -->
<svg xmlns="http://www.w3.org/2000/svg" xml:space="preserve" width="1.905cm" height="1.905cm" version="1.1" style="shape-rendering:geometricPrecision; text-rendering:geometricPrecision; image-rendering:optimizeQuality; fill-rule:evenodd; clip-rule:evenodd"
viewBox="0 0 1905 1905"
 xmlns:xlink="http://www.w3.org/1999/xlink">
 <defs>
  <style type="text/css">
   <![CDATA[
    .fil0 {fill:#00A2E9;fill-rule:nonzero}
   ]]>
  </style>
 </defs>
 <g id="Layer_x0020_1">
  <metadata id="CorelCorpID_0Corel-Layer"/>
  <path class="fil0" d="M379 689l0 199 242 0c11,0 22,-1 33,-4l63 110 0 0 112 194 -106 61 -138 -238 -206 0 0 199 -124 0 0 -199 0 -322 0 -225 366 0c75,0 144,31 193,80 50,50 81,118 81,194 0,72 -29,139 -76,188l-66 -116c12,-22 18,-46 18,-72 0,-42 -17,-79 -44,-106 -27,-28 -65,-45 -106,-45l-242 0 0 102zm755 430l242 0c41,0 79,-17 106,-45 28,-27 44,-64 44,-106 0,-41 -16,-79 -44,-106 -27,-27 -65,-44 -106,-44l-242 0 0 80 -124 0 0 -203 366 0c75,0 144,31 193,80 50,50 81,118 81,193 0,75 -31,144 -81,193 -49,50 -118,81 -193,81l-242 0 0 199 -124 0 0 -199 0 -123 124 0z"/>
 </g>
</svg>
