<?xml version="1.0" encoding="UTF-8"?>
<!DOCTYPE svg PUBLIC "-//W3C//DTD SVG 1.1//EN" "http://www.w3.org/Graphics/SVG/1.1/DTD/svg11.dtd">
<!-- Creator: CorelDRAW X8 -->
<svg xmlns="http://www.w3.org/2000/svg" xml:space="preserve" width="2cm" height="2cm" version="1.1" style="shape-rendering:geometricPrecision; text-rendering:geometricPrecision; image-rendering:optimizeQuality; fill-rule:evenodd; clip-rule:evenodd"
viewBox="0 0 2000 2000"
 xmlns:xlink="http://www.w3.org/1999/xlink">
 <defs>
  <style type="text/css">
   <![CDATA[
    .fil0 {fill:#00A2E9;fill-rule:nonzero}
   ]]>
  </style>
 </defs>
 <g id="Layer_x0020_1">
  <metadata id="CorelCorpID_0Corel-Layer"/>
  <path class="fil0" d="M646 1161l0 -15 0 -2 0 0 0 -2 0 -1 0 -1 0 -2 0 -1 0 -2 0 0 0 -2 0 0 0 -2 0 -1 0 -2 0 -1 1 -1 0 -4 0 -3 0 0 0 -2c5,-48 21,-92 45,-132 1,-2 3,-4 4,-6l1 -1 0 -1 1 -1 0 0 1 -2 0 0 1 -1 0 0 1 -2 0 0 1 -1 0 0 1 -2 1 -1 0 0c13,-17 27,-33 42,-47 13,-6 23,-13 29,-17 7,-5 7,-5 3,-17 -4,-12 -13,-35 -18,-56 -5,-21 -6,-41 -5,-58l0 -4 0 0 0 0c4,-56 20,-96 69,-144l0 -1c45,-45 107,-73 176,-73 69,0 131,28 176,73l0 1c49,48 65,88 69,144l0 0 0 0 0 4c1,17 0,37 -5,58 -5,21 -14,44 -18,56 -4,12 -4,12 3,17 6,4 16,11 29,17 15,14 29,30 42,47l0 0 1 1 1 2 0 0 1 1 0 0 1 2 0 0 1 1 0 0 1 2 0 0 1 1 0 1 1 1c1,2 3,4 4,6 24,40 40,84 45,132l0 2 0 0 0 3 0 4 1 1 0 1 0 2 0 1 0 2 0 0 0 2 0 0 0 2 0 1 0 2 0 1 0 1 0 2 0 0 0 2 0 15 0 100 0 58c0,37 -15,71 -40,96 -16,16 -37,28 -60,35l0 -131 0 0 0 -58 0 -115 0 -1 0 0 0 -2 0 0 0 -1 0 -1 0 -1 0 -1 0 0 0 -2 0 0 0 -1 0 -1 0 -1 0 -1 0 -1 0 0 0 -1 0 -1 -1 -1 0 -1 0 0 0 -2 0 0 0 -1 0 -1c-3,-30 -13,-58 -28,-83l0 0 -1 -2 0 -1 -1 0 0 -1 -1 -1 0 0 0 -1 -1 -1 0 -1 0 0 -1 -1 0 0 -1 -1 0 -1 -1 -1c-13,-18 -29,-35 -47,-48l-4 -4c-9,-6 -18,-12 -28,-16l-52 -27 34 -47c9,-13 16,-27 21,-41 5,-15 7,-30 7,-46 0,-42 -16,-79 -43,-106 -27,-27 -65,-44 -106,-44 -41,0 -79,17 -106,44 -27,27 -43,64 -43,106 0,16 2,31 7,46 5,14 12,28 21,41l34 47 -52 27c-10,4 -19,10 -28,16l-4 4c-18,13 -34,30 -47,48l-1 1 0 1 -1 1 0 0 -1 1 0 0 0 1 0 1 -1 1 0 0 -1 1 0 1 -1 0 0 1 -1 2 0 0c-15,25 -25,53 -28,83l0 1 0 1 0 0 0 2 0 0 0 1 -1 1 0 1 0 1 0 0 0 1 0 1 0 1 0 1 0 1 0 0 0 2 0 0 0 1 0 1 0 1 0 1 0 0 0 2 0 0 0 1 0 115 0 58 0 0 0 131c-23,-7 -44,-19 -60,-35 -25,-25 -40,-59 -40,-96l0 -58 0 -100z"/>
 </g>
</svg>
